<svg width="40" height="40" viewBox="0 0 40 40" fill="none" xmlns="http://www.w3.org/2000/svg">
<path d="M18.6901 0.0107641C18.6041 0.0185831 18.3304 0.0459496 18.0841 0.0654971C12.4027 0.577641 7.08113 3.64268 3.71065 8.35362C1.83382 10.973 0.633431 13.9442 0.179863 17.0913C0.0195503 18.1899 0 18.5144 0 20.0039C0 21.4934 0.0195503 21.8179 0.179863 22.9165C1.26686 30.4266 6.61193 36.7365 13.8612 39.0744C15.1593 39.4927 16.5279 39.7781 18.0841 39.9502C18.6901 40.0166 21.3099 40.0166 21.9159 39.9502C24.6021 39.653 26.8778 38.9884 29.1222 37.8429C29.4663 37.667 29.5327 37.6201 29.4858 37.581C29.4545 37.5575 27.9883 35.5911 26.2287 33.2141L23.0303 28.8941L19.0225 22.9634C16.8172 19.7029 15.0029 17.0366 14.9873 17.0366C14.9717 17.0327 14.956 19.6677 14.9482 22.8852C14.9365 28.5188 14.9326 28.7455 14.8622 28.8785C14.7605 29.07 14.6823 29.1482 14.5181 29.2342C14.393 29.2968 14.2835 29.3085 13.6931 29.3085H13.0166L12.8368 29.1951C12.7195 29.1209 12.6334 29.0231 12.5748 28.9097L12.4927 28.7338L12.5005 20.8953L12.5122 13.0528L12.6334 12.9004C12.696 12.8183 12.8289 12.7127 12.9228 12.6619C13.0831 12.5837 13.1456 12.5759 13.8221 12.5759C14.6197 12.5759 14.7527 12.6072 14.9599 12.8339C15.0186 12.8965 17.1887 16.1648 19.7849 20.1017C22.3812 24.0385 25.9316 29.4141 27.6755 32.053L30.8426 36.8499L31.0029 36.7444C32.4223 35.8217 33.9238 34.5081 35.1124 33.1398C37.6422 30.2351 39.2727 26.6931 39.8201 22.9165C39.9804 21.8179 40 21.4934 40 20.0039C40 18.5144 39.9804 18.1899 39.8201 17.0913C38.7331 9.58121 33.3881 3.27128 26.1388 0.933405C24.8602 0.518998 23.4995 0.233605 21.9746 0.0615876C21.5992 0.0224926 19.0147 -0.0205118 18.6901 0.0107641ZM26.8778 12.1067C27.0655 12.2006 27.218 12.3804 27.2727 12.5681C27.304 12.6697 27.3118 14.8434 27.304 19.742L27.2923 26.7712L26.0528 24.8712L24.8094 22.9712V17.8615C24.8094 14.558 24.825 12.701 24.8485 12.6111C24.911 12.3921 25.0479 12.2201 25.2356 12.1185C25.3959 12.0364 25.4545 12.0285 26.0684 12.0285C26.6471 12.0285 26.7488 12.0364 26.8778 12.1067Z" fill="black"/>
</svg>
